<?xml version="1.0" encoding="utf-8"?>
<!-- Generator: Adobe Illustrator 26.5.0, SVG Export Plug-In . SVG Version: 6.00 Build 0)  -->
<svg version="1.1" id="Layer_1" xmlns="http://www.w3.org/2000/svg" xmlns:xlink="http://www.w3.org/1999/xlink" x="0px" y="0px"
	 viewBox="0 0 512 512" style="enable-background:new 0 0 512 512;" xml:space="preserve">
<style type="text/css">
	.st0{fill-rule:evenodd;clip-rule:evenodd;fill:#181616;}
	.st1{fill:#181616;}
</style>
<g id="XMLID_24_">
	<path id="XMLID_26_" class="st0" d="M256,6.31c-141.4,0-256,114.6-256,256c0,113.06,73.36,209.01,175.06,242.95
		c12.76,2.38,17.53-5.61,17.53-12.34c0-6.17-0.28-26.23-0.28-47.69c-71.26,15.43-86.27-30.16-86.27-30.16
		c-11.64-29.6-28.48-37.45-28.48-37.45c-23.29-15.85,1.68-15.57,1.68-15.57c25.67,1.82,39.28,26.37,39.28,26.37
		c22.86,39.14,59.9,27.77,74.49,21.32c2.24-16.55,8.98-27.77,16.27-34.23c-56.81-6.45-116.71-28.48-116.71-126.53
		c0-27.91,9.96-50.78,26.37-68.73c-2.67-6.45-11.36-32.54,2.52-67.75c0,0,21.46-6.87,70.42,26.23c20.48-5.61,42.36-8.56,64.11-8.56
		c21.74,0.14,43.63,2.95,64.11,8.56c48.82-33.1,70.28-26.23,70.28-26.23c13.89,35.21,5.19,61.3,2.52,67.75
		c16.41,17.96,26.37,40.82,26.37,68.73c0,98.33-59.9,119.93-116.85,126.25c9.12,8,17.39,23.57,17.39,47.41
		c0,34.23-0.28,61.86-0.28,70.28c0,6.87,4.63,14.73,17.53,12.34C438.78,471.32,512,375.51,512,262.31
		C512,120.91,397.4,6.31,256,6.31z"/>
	<path id="XMLID_30_" class="st1" d="M96.93,373.83c-0.56,1.26-2.52,1.68-4.35,0.84c-1.82-0.84-2.95-2.52-2.24-3.79
		c0.56-1.26,2.52-1.68,4.35-0.84C96.51,370.88,97.63,372.57,96.93,373.83z"/>
	<path id="XMLID_31_" class="st1" d="M107.31,385.47c-1.26,1.12-3.65,0.56-5.19-1.12c-1.68-1.82-1.96-4.21-0.7-5.33
		c1.26-1.12,3.51-0.56,5.19,1.12C108.29,381.96,108.57,384.35,107.31,385.47z"/>
	<path id="XMLID_32_" class="st1" d="M117.41,400.2c-1.54,1.12-4.07,0.14-5.75-2.24c-1.54-2.24-1.54-5.05,0-6.17
		c1.54-1.12,4.07-0.14,5.75,2.1C119.09,396.27,119.09,399.08,117.41,400.2z"/>
	<path id="XMLID_33_" class="st1" d="M131.3,414.37c-1.4,1.54-4.35,1.12-6.59-0.98c-2.24-2.1-2.81-5.05-1.4-6.59
		s4.49-1.12,6.59,0.98C132.14,410.02,132.7,412.96,131.3,414.37z"/>
	<path id="XMLID_34_" class="st1" d="M150.37,422.64c-0.56,1.96-3.51,2.95-6.45,2.1c-2.95-0.84-4.77-3.23-4.21-5.19
		c0.56-1.96,3.51-2.95,6.45-2.1C148.97,418.29,150.93,420.68,150.37,422.64z"/>
	<path id="XMLID_35_" class="st1" d="M171.27,424.19c0.14,2.1-2.38,3.93-5.47,3.93c-3.09,0.14-5.47-1.68-5.61-3.79
		c0-2.1,2.38-3.93,5.47-3.93C168.75,420.4,171.27,422.08,171.27,424.19z"/>
	<path id="XMLID_36_" class="st1" d="M190.77,420.96c0.42,2.1-1.68,4.21-4.77,4.77c-2.95,0.56-5.75-0.7-6.03-2.81
		c-0.42-2.1,1.82-4.21,4.77-4.77C187.69,417.59,190.35,418.86,190.77,420.96z"/>
</g>
</svg>
